HIERARCHY
ROOT root
{
	OFFSET 0.000000 0.000000 0.000000
	CHANNELS 6 Xposition Yposition Zposition Zrotation Yrotation Xrotation
	JOINT lhip
	{
		OFFSET 0.058581 -0.082280 -0.017664
		CHANNELS 3 Zrotation Yrotation Xrotation
		JOINT lknee
		{
			OFFSET 0.043451 -0.386469 0.008037
			CHANNELS 3 Zrotation Yrotation Xrotation
			JOINT lankle
			{
				OFFSET -0.014790 -0.426874 -0.037428
				CHANNELS 3 Zrotation Yrotation Xrotation
				JOINT ltoe
				{
					OFFSET 0.041054 -0.060286 0.122042
					CHANNELS 3 Zrotation Yrotation Xrotation
					End Site
					{
						OFFSET 0.000000 0.000000 0.000000
					}
				}
			}
		}
	}
	JOINT rhip
	{
		OFFSET -0.060310 -0.090513 -0.013543
		CHANNELS 3 Zrotation Yrotation Xrotation
		JOINT rknee
		{
			OFFSET -0.043257 -0.383688 -0.004843
			CHANNELS 3 Zrotation Yrotation Xrotation
			JOINT rankle
			{
				OFFSET 0.019056 -0.420046 -0.034562
				CHANNELS 3 Zrotation Yrotation Xrotation
				JOINT rtoe
				{
					OFFSET -0.034840 -0.062106 0.130323
					CHANNELS 3 Zrotation Yrotation Xrotation
					End Site
					{
						OFFSET 0.000000 0.000000 0.000000
					}
				}
			}
		}
	}
	JOINT lowerback
	{
		OFFSET 0.004439 0.124404 -0.038385
		CHANNELS 3 Zrotation Yrotation Xrotation
		JOINT upperback
		{
			OFFSET 0.004488 0.137956 0.026820
			CHANNELS 3 Zrotation Yrotation Xrotation
			JOINT chest
			{
				OFFSET -0.002265 0.056032 0.002855
				CHANNELS 3 Zrotation Yrotation Xrotation
				JOINT lowerneck
				{
					OFFSET -0.013390 0.211636 -0.033468
					CHANNELS 3 Zrotation Yrotation Xrotation
					JOINT upperneck
					{
						OFFSET 0.010113 0.088937 0.050410
						CHANNELS 3 Zrotation Yrotation Xrotation
						End Site
						{
							OFFSET 0.000000 0.000000 0.000000
						}
					}
				}
				JOINT lclavicle
				{
					OFFSET 0.071702 0.114000 -0.018898
					CHANNELS 3 Zrotation Yrotation Xrotation
					JOINT lshoulder
					{
						OFFSET 0.122921 0.045205 -0.019046
						CHANNELS 3 Zrotation Yrotation Xrotation
						JOINT lelbow
						{
							OFFSET 0.255332 -0.015649 -0.022946
							CHANNELS 3 Zrotation Yrotation Xrotation
							JOINT lwrist
							{
								OFFSET 0.265709 0.012698 -0.007375
								CHANNELS 3 Zrotation Yrotation Xrotation
								End Site
								{
									OFFSET 0.000000 0.000000 0.000000
								}
							}
						}
					}
				}
				JOINT rclavicle
				{
					OFFSET -0.082954 0.112472 -0.023707
					CHANNELS 3 Zrotation Yrotation Xrotation
					JOINT rshoulder
					{
						OFFSET -0.113228 0.046853 -0.008472
						CHANNELS 3 Zrotation Yrotation Xrotation
						JOINT relbow
						{
							OFFSET -0.260127 -0.014369 -0.031269
							CHANNELS 3 Zrotation Yrotation Xrotation
							JOINT rwrist
							{
								OFFSET -0.269108 0.006794 -0.006027
								CHANNELS 3 Zrotation Yrotation Xrotation
								End Site
								{
									OFFSET 0.000000 0.000000 0.000000
								}
							}
						}
					}
				}
			}
		}
	}
}
MOTION
Frames: 16
Frame Time: 0.033333
-0.004967 -1.555697 0.985277 -179.669217 -3.187139 86.763902 -5.310856 -2.768758 -4.214818 -3.331401 -1.521492 8.041011 3.804364 12.611117 -8.645542 0.000000 -0.000000 0.000000 -2.849253 1.762165 -12.181763 2.366930 0.434878 55.703220 6.465193 -3.515456 -6.537780 0.000000 -0.000000 0.000000 -4.071617 -0.455493 8.490180 1.746244 -2.353330 0.239061 -1.126890 -1.807069 2.784633 -0.691708 5.136553 -10.453001 -1.131774 -0.473256 2.175786 -24.390282 10.823337 6.319653 -57.324315 2.698146 10.557031 12.472294 -38.663313 -0.105681 23.486607 -20.037681 -31.244118 29.755220 -2.103610 -0.225104 61.144390 2.679653 18.205415 -12.532615 24.112327 -4.724958 -7.411041 11.917531 -6.399722 
-0.007281 -1.513056 0.989442 -177.220576 -2.398320 86.256108 -4.981005 -0.957938 1.402600 -2.844457 -4.427410 4.116800 2.810154 11.698922 -9.990001 0.000000 -0.000000 0.000000 -2.067759 1.764661 -16.041082 2.786429 -1.315254 49.890658 7.401089 -2.805716 -10.192573 0.000000 -0.000000 0.000000 -3.217275 -2.150877 9.391606 1.740600 -2.194213 -0.147379 -0.875345 -2.419019 2.878793 -1.020874 5.427402 -10.587903 -1.182980 -1.020873 2.608417 -25.067100 10.149646 5.732627 -55.985577 -1.963297 11.297796 13.119611 -42.396299 -2.552104 23.509277 -23.421692 -30.460521 29.446026 -2.847646 -0.325970 60.094690 -0.391669 17.495190 -11.404207 21.792007 -3.587094 -5.614106 11.421617 -4.444348 
-0.008946 -1.469443 0.989486 -175.265859 -1.419003 85.378560 -3.781838 0.734232 7.503853 -2.344609 -7.152792 0.028537 1.978682 11.289848 -11.537253 0.000000 -0.000000 0.000000 -1.465070 2.301153 -18.365936 2.748240 -3.090615 41.595364 7.203484 -3.618131 -12.816082 0.000000 -0.000000 0.000000 -2.165778 -3.962195 10.540028 1.679994 -1.747076 -0.431106 -0.440300 -2.910300 2.835768 -1.415194 4.924969 -10.337060 -1.100985 -1.196426 2.807241 -25.782756 9.283890 5.098676 -55.034765 -6.027004 11.579002 14.613943 -46.345148 -4.986888 23.257371 -25.619766 -30.879710 29.154121 -3.313652 -0.079808 58.592416 -3.348651 16.538630 -10.555164 18.040667 -2.376113 -4.871382 13.436123 -1.551383 
-0.009907 -1.417282 0.983630 -173.907316 -0.847090 85.294474 -1.995090 2.592521 12.373360 -2.793635 -9.470012 -2.045195 1.348523 10.233896 -14.054569 0.000000 -0.000000 0.000000 -1.285781 1.519870 -21.719560 1.626553 -4.709248 29.215901 7.582108 -4.833399 -12.324956 0.000000 -0.000000 0.000000 -1.683312 -5.347046 11.033562 1.537867 -1.427732 -0.785142 0.221299 -3.495890 2.566164 -1.815982 4.434118 -9.330238 -0.138538 -0.541775 2.645397 -26.578053 8.418557 4.647711 -53.658034 -10.650801 11.520712 17.393232 -51.693688 -8.947323 22.810280 -27.079407 -31.241231 29.045682 -4.074627 0.425739 56.549103 -6.508428 15.470369 -10.238795 15.853127 -2.386270 -2.889973 12.894547 0.756215 
-0.011307 -1.386964 0.978678 -172.522040 -0.674841 85.308760 -1.381987 2.499509 14.058899 -2.906487 -10.431277 -1.211729 1.331115 9.566425 -16.266478 0.000000 -0.000000 0.000000 -1.384881 0.181514 -22.959820 0.630839 -5.932281 20.420046 8.667711 -6.217449 -9.177204 0.000000 -0.000000 0.000000 -1.361677 -5.658364 11.664168 1.533959 -1.737974 -1.410347 0.655256 -4.289346 2.522434 -2.103462 3.547492 -9.220099 0.589960 0.128187 2.690427 -27.071894 7.587214 4.849290 -53.118539 -13.511447 11.601100 20.263800 -53.854861 -11.864294 22.945289 -28.249281 -31.896287 28.990459 -4.621924 0.144278 55.271323 -8.503898 15.052818 -10.450903 14.621753 -2.732236 -2.048095 13.223455 2.280720 
-0.011657 -1.344698 0.969154 -171.761500 -0.955639 86.092760 -1.031605 2.862813 15.561924 -3.027878 -11.142298 -0.011818 1.144108 8.833006 -18.670835 0.000000 -0.000000 0.000000 -1.511874 -0.603512 -25.340782 -1.021319 -6.204480 10.025168 10.307774 -7.550164 -4.570655 0.000000 -0.000000 0.000000 -1.301713 -6.198697 10.909404 1.421027 -2.259599 -1.346044 0.677718 -4.620622 2.438666 -2.227633 3.007360 -8.840970 1.452215 0.715646 2.139574 -26.898571 7.101468 4.901788 -51.864188 -16.641347 11.841796 22.758601 -56.460269 -14.132124 24.387633 -29.190502 -33.089942 29.018310 -5.295147 -0.217298 54.375932 -10.045723 14.833836 -10.732340 12.123739 -4.058701 -2.505693 13.517358 2.443378 
-0.011372 -1.298264 0.958906 -171.140973 -1.689147 86.887742 -0.514916 4.376722 17.074501 -3.326072 -12.656371 1.864632 0.363215 7.946411 -20.825972 0.000000 -0.000000 0.000000 -2.141952 -1.885560 -27.522394 -1.485550 -4.398477 3.323565 11.227110 -6.643305 -5.156793 0.000000 -0.000000 0.000000 -1.762488 -5.949901 8.919186 1.357199 -3.097023 -0.877806 1.084800 -5.240254 3.278458 -3.307541 2.765826 -9.010315 2.610027 0.910558 2.275005 -26.701788 5.102832 5.274066 -51.005920 -17.938536 10.453689 25.106774 -58.513353 -18.143944 26.057143 -31.128854 -31.441734 27.997222 -4.572959 -1.096820 54.895554 -12.716267 13.539310 -11.865495 10.692289 -8.808060 -2.103013 12.316674 5.310296 
-0.010505 -1.251304 0.951051 -169.896005 -1.296259 86.831703 1.292510 4.608111 19.121165 -3.637660 -14.795826 4.389260 -0.675548 7.185207 -21.157107 0.000000 -0.000000 0.000000 -2.821415 -1.896394 -28.550743 -0.689616 -3.994306 2.434486 11.044680 -6.455083 -6.402463 0.000000 -0.000000 0.000000 -1.031537 -6.966626 9.035551 1.536473 -3.416718 -0.567399 0.985534 -5.593458 2.877222 -3.301391 2.809847 -9.600557 2.521427 1.073348 2.786412 -26.990589 4.400244 5.031531 -50.154747 -19.253918 10.185333 26.361593 -59.011622 -19.010611 26.274748 -31.725669 -31.198707 28.070234 -4.781964 -1.234134 54.115100 -13.349303 12.350386 -11.732613 9.056772 -9.932721 -3.073079 12.751667 4.765254 
-0.009832 -1.200061 0.946903 -169.912847 -0.825845 86.759856 2.252083 4.182117 21.420021 -3.566163 -16.692955 7.177161 -1.479058 7.782273 -19.715273 0.000000 -0.000000 0.000000 -3.286501 -0.344871 -30.184775 -0.224546 -3.285689 9.452447 9.708782 -7.153653 -6.695483 0.000000 -0.000000 0.000000 0.041650 -7.995982 8.370880 1.713926 -2.682297 -0.224704 0.597498 -5.450231 2.636514 -3.255581 2.965191 -9.617845 2.118191 1.092161 3.262978 -27.611917 4.180744 4.666974 -49.584515 -19.328773 10.398739 26.182437 -58.638076 -18.919181 25.724207 -31.937149 -30.086430 28.453550 -5.076645 -1.309672 52.952194 -14.249786 11.433701 -11.533657 8.183931 -10.991405 -4.466184 12.769611 4.860679 
-0.006726 -1.131273 0.946757 -169.604328 -0.074033 87.600560 2.762950 1.879942 21.581668 -4.109060 -17.649176 13.626524 -1.894714 7.756008 -13.758212 0.000000 -0.000000 0.000000 -3.130039 -0.063154 -31.481050 0.296661 -7.089039 17.327644 7.391912 -10.364326 -0.705931 0.000000 -0.000000 0.000000 1.415278 -8.362748 5.863975 2.366477 -1.999997 0.318221 0.396220 -5.411651 2.052063 -3.564700 2.228636 -8.149055 1.889778 2.616182 3.610817 -28.516717 4.416023 5.365513 -50.284937 -18.378112 10.539995 24.188189 -57.139189 -16.268583 23.998410 -31.376959 -28.636864 28.568859 -5.670124 -0.225029 52.014367 -14.765676 10.537758 -11.304997 7.411320 -11.137737 -5.091331 12.394409 4.105375 
-0.003890 -1.076334 0.951085 -169.959070 0.887020 87.770076 3.056537 0.757670 19.545977 -4.695562 -15.229460 22.288085 -2.448642 7.071388 -5.030656 0.000000 -0.000000 0.000000 -2.142304 0.808991 -31.380032 1.257829 -6.738844 23.054511 5.177466 -9.994579 0.353025 0.000000 -0.000000 0.000000 2.481886 -8.074774 4.547584 3.178409 -1.465831 1.379676 0.350379 -5.205174 1.582077 -3.081761 2.161336 -8.565727 1.446081 3.458844 4.217815 -29.317923 4.893500 5.094769 -52.049386 -16.686422 11.116543 23.017728 -54.851176 -15.428670 20.878363 -30.819053 -26.531548 29.009143 -5.491125 0.516009 51.200437 -14.088805 10.164096 -11.166449 7.352124 -11.250458 -2.773077 11.993998 4.728143 
0.000168 -1.023813 0.956845 -170.710535 1.709777 87.463884 3.208010 -0.353898 15.234201 -5.898106 -10.833456 34.360332 -1.780707 8.217662 4.546774 0.000000 -0.000000 0.000000 -0.318089 2.325001 -29.845390 1.368074 -7.041162 27.522441 1.196330 -10.741318 -3.230578 0.000000 -0.000000 0.000000 2.986315 -7.295694 4.484826 3.801017 -1.072212 1.835851 0.355573 -4.920035 1.153891 -2.307192 2.255175 -8.600967 2.048293 4.281915 4.159277 -29.068314 5.319911 5.078322 -54.043396 -14.105097 11.588323 20.474784 -52.698339 -12.315336 21.411943 -28.763841 -27.477746 28.787237 -4.895582 1.287141 51.864282 -12.847474 10.102022 -11.322286 7.844885 -9.909032 -2.356647 11.363588 3.488011 
0.005153 -0.976002 0.962775 -170.933370 2.272745 87.235164 3.579140 -0.961625 8.819476 -5.666694 -6.259032 46.771945 -1.723866 9.452040 10.363216 0.000000 -0.000000 0.000000 1.545273 2.995673 -26.783583 0.926041 -7.026222 29.063092 -1.150616 -10.479769 -6.894503 0.000000 -0.000000 0.000000 3.260446 -6.103389 4.649378 4.147207 -1.481660 2.498470 0.022217 -4.433324 0.650132 -1.508019 2.318168 -8.427756 3.058894 4.120063 3.714483 -28.901656 4.476238 5.649576 -54.830397 -11.413872 11.227573 17.632390 -50.159917 -8.968451 22.864600 -26.607838 -29.128243 28.981985 -3.471559 2.004642 53.122016 -11.462207 9.990843 -11.646960 9.933186 -8.192697 -3.003807 10.523961 0.433235 
0.007408 -0.927778 0.971791 -172.308116 2.418775 86.993536 3.368553 -0.677477 3.209394 -4.112583 -2.304845 54.275094 0.147736 10.564255 5.568478 0.000000 -0.000000 0.000000 3.132367 2.854962 -22.199177 0.905458 -6.175596 27.886095 -1.475297 -9.793325 -9.515406 0.000000 -0.000000 0.000000 3.490450 -4.155003 5.287828 3.803634 -0.571635 1.658444 0.364223 -4.328526 0.544555 -1.513921 1.011826 -7.473989 3.258871 4.558803 3.174791 -29.928157 4.051072 6.416838 -55.269660 -8.518836 9.994266 14.809255 -46.976179 -5.395875 20.398745 -25.587722 -28.673418 28.684344 -2.685309 2.727230 53.917212 -9.724267 9.784316 -11.322763 13.067225 -6.994927 -3.615092 10.503075 -2.539698 
0.009734 -0.882870 0.981449 -173.700524 2.201799 86.482313 2.687582 -1.006812 -2.433433 -4.109115 -0.016945 57.558795 0.060076 9.107915 1.218453 0.000000 -0.000000 0.000000 4.661137 1.970602 -17.040696 0.425761 -4.588029 25.408703 -1.200101 -9.394000 -12.107787 0.000000 -0.000000 0.000000 3.523650 -2.475070 6.992758 3.250250 -0.743052 0.582517 0.041218 -3.628766 0.153115 -1.121430 1.077060 -7.741539 3.182179 4.441973 4.226533 -29.668297 4.891209 5.823720 -56.217928 -4.576824 9.503176 12.609235 -44.511112 -1.584705 18.944904 -24.111106 -27.857217 28.554830 -1.688633 2.535208 55.022037 -7.456241 10.537417 -11.497167 16.253714 -5.849736 -4.763571 10.712405 -4.484105 
0.011501 -0.839146 0.990037 -175.417756 1.831789 85.662141 2.314252 -2.136724 -6.969988 -5.361922 2.577824 56.275010 -0.307799 7.391632 -4.638356 0.000000 -0.000000 0.000000 5.578000 1.931551 -10.967215 -0.052046 -2.954781 21.799449 -1.174812 -8.207399 -12.863257 0.000000 -0.000000 0.000000 3.008279 -0.456090 6.936494 3.005419 -1.205928 2.694398 -0.027976 -2.862308 -0.528108 -0.838909 2.157665 -8.401339 2.556830 3.427526 4.946849 -28.890163 4.707615 5.250167 -58.296310 -1.062122 8.977020 12.574143 -40.738159 1.610193 18.089442 -22.645833 -28.700978 27.963939 -0.582779 2.843272 56.145691 -3.518204 11.101638 -11.908198 20.567192 -2.960870 -5.229889 10.219853 -8.793198 
